<svg width="18" height="18" viewBox="0 0 18 18" fill="none" xmlns="http://www.w3.org/2000/svg">
<g clip-path="url(#clip0)">
<path d="M16.5 0.984375H1.5C0.671997 0.984375 0 1.65637 0 2.48438V3.48431C0 4.31232 0.671997 4.98431 1.5 4.98431H16.5C17.328 4.98431 18 4.31232 18 3.48431V2.48438C18 1.65637 17.328 0.984375 16.5 0.984375Z" fill="#EAEAEA"/>
<path d="M16.5 6.98438H1.5C0.671997 6.98438 0 7.65637 0 8.48438V9.48431C0 10.3123 0.671997 10.9843 1.5 10.9843H16.5C17.328 10.9843 18 10.3123 18 9.48431V8.48438C18 7.65637 17.328 6.98438 16.5 6.98438Z" fill="#EAEAEA"/>
<path d="M16.5 12.9844H1.5C0.671997 12.9844 0 13.6564 0 14.4844V15.4843C0 16.3123 0.671997 16.9843 1.5 16.9843H16.5C17.328 16.9843 18 16.3123 18 15.4843V14.4844C18 13.6564 17.328 12.9844 16.5 12.9844Z" fill="#EAEAEA"/>
</g>
<defs>
<clipPath id="clip0">
<rect width="18" height="18" fill="white"/>
</clipPath>
</defs>
</svg>
