<svg width="18" height="18" viewBox="0 0 18 18" fill="none" xmlns="http://www.w3.org/2000/svg">
<circle cx="9" cy="9" r="9" fill="#EAEAEA"/>
<path d="M7.08 14V12.716H6.12V11.552H7.08V10.616H6.12V9.128H7.08V5.432H9.816C10.92 5.432 11.724 5.656 12.228 6.104C12.74 6.552 12.996 7.168 12.996 7.952C12.996 8.416 12.892 8.852 12.684 9.26C12.476 9.668 12.128 9.996 11.64 10.244C11.16 10.492 10.504 10.616 9.672 10.616H8.892V11.552H10.74V12.716H8.892V14H7.08ZM8.892 9.128H9.492C10.004 9.128 10.408 9.04 10.704 8.864C11.008 8.688 11.16 8.404 11.16 8.012C11.16 7.284 10.68 6.92 9.72 6.92H8.892V9.128Z" fill="#171A2B"/>
</svg>
