<svg width="18" height="18" viewBox="0 0 18 18" fill="none" xmlns="http://www.w3.org/2000/svg">
<path d="M8.07223 15.0257H5.899C5.67776 15.0257 5.49841 15.2051 5.49841 15.4262V17.5995C5.49841 17.8206 5.67776 18 5.899 18H8.07223C8.29333 18 8.47269 17.8206 8.47269 17.5995V15.4262C8.47269 15.2051 8.29333 15.0257 8.07223 15.0257Z" fill="#FFB629"/>
<path d="M12.101 15.0257H9.9278C9.7067 15.0257 9.52734 15.2051 9.52734 15.4262V17.5995C9.52734 17.8206 9.7067 18 9.9278 18H12.101C12.3223 18 12.5015 17.8206 12.5015 17.5995V15.4262C12.5015 15.2051 12.3223 15.0257 12.101 15.0257Z" fill="#FFB629"/>
<path d="M10.4871 13.6831V11.5098C10.4871 11.2887 10.3078 11.1094 10.0867 11.1094H7.91345C7.69221 11.1094 7.513 11.2887 7.513 11.5098V13.6831C7.513 13.9043 7.69221 14.0835 7.91345 14.0835H10.0867C10.3078 14.0836 10.4871 13.9043 10.4871 13.6831Z" fill="#FFB629"/>
<path d="M16.6315 7.42896L9.2885 2.6278C9.11313 2.51313 8.88667 2.51313 8.7113 2.6278L1.36845 7.42896C1.21945 7.52646 1.12964 7.69236 1.12964 7.87033V17.4727C1.12964 17.7639 1.36571 18 1.65698 18H3.91632C4.2076 18 4.44366 17.7639 4.44366 17.4727V8.96251H13.5561V17.4727C13.5561 17.7639 13.7923 18 14.0835 18H16.343C16.6341 18 16.8703 17.7639 16.8703 17.4727V7.87033C16.8703 7.69236 16.7805 7.52633 16.6315 7.42896Z" fill="#FFB629"/>
<path d="M17.9906 6.07242C17.9633 5.93523 17.8824 5.81465 17.7661 5.73706L9.29339 0.0885773C9.20482 0.0296631 9.10278 0.000137329 9.00088 0.000137329V0C8.89898 0 8.79695 0.0295258 8.70837 0.0885773L0.235716 5.73706C0.119398 5.81465 0.0386489 5.93523 0.0111831 6.07242C-0.0162828 6.20947 0.0118697 6.35202 0.0894606 6.46834L0.391859 6.92194C0.500899 6.77678 0.635069 6.64893 0.792174 6.5462L8.13502 1.74504C8.66113 1.40131 9.34064 1.40131 9.86647 1.7449L17.2096 6.5462C17.3666 6.64893 17.5009 6.77664 17.6099 6.92194L17.9123 6.46834C17.9899 6.35202 18.018 6.20961 17.9906 6.07242Z" fill="#FFB629"/>
</svg>
