<svg width="15" height="18" viewBox="0 0 15 18" fill="none" xmlns="http://www.w3.org/2000/svg">
<path d="M5.50134 1.08655H8.50967V1.59274H9.59608V1.01569C9.59622 0.455658 9.14084 0 8.58109 0H5.42993C4.87018 0 4.41479 0.455658 4.41479 1.01569V1.59274H5.50134V1.08655Z" fill="#FFB629"/>
<path d="M12.105 5.89746H1.90587C1.6264 5.89746 1.4064 6.13586 1.42893 6.41451L2.2816 16.9581C2.32912 17.5467 2.82007 18 3.4099 18H10.6009C11.1907 18 11.6816 17.5467 11.7292 16.9579L12.5818 6.41451C12.6045 6.13586 12.3845 5.89746 12.105 5.89746ZM4.37546 16.8754C4.36406 16.8761 4.35266 16.8765 4.3414 16.8765C4.05658 16.8765 3.81749 16.6547 3.79977 16.3666L3.26543 7.71089C3.24702 7.41138 3.47485 7.15361 3.77423 7.13521C4.07265 7.11708 4.33151 7.34436 4.34991 7.64401L4.88412 16.2997C4.90266 16.5992 4.67484 16.8569 4.37546 16.8754ZM7.55476 16.3332C7.55476 16.6332 7.31155 16.8764 7.01149 16.8764C6.71143 16.8764 6.46822 16.6332 6.46822 16.3332V7.67738C6.46822 7.37732 6.71143 7.13411 7.01149 7.13411C7.31142 7.13411 7.55476 7.37732 7.55476 7.67738V16.3332ZM10.7455 7.70938L10.2353 16.3651C10.2184 16.6538 9.9789 16.8764 9.69353 16.8764C9.68282 16.8764 9.67197 16.8761 9.66112 16.8755C9.3616 16.8578 9.13309 16.6008 9.1508 16.3012L9.66084 7.64539C9.67842 7.34587 9.93468 7.11736 10.235 7.13507C10.5345 7.15265 10.763 7.40987 10.7455 7.70938Z" fill="#FFB629"/>
<path d="M13.9837 4.22095L13.6269 3.15143C13.5329 2.86949 13.2689 2.67929 12.9716 2.67929H1.03921C0.742032 2.67929 0.477948 2.86949 0.384015 3.15143L0.0272337 4.22095C-0.0415682 4.42722 0.0479704 4.6376 0.2151 4.74252C0.283215 4.78523 0.363827 4.81091 0.452405 4.81091H13.5585C13.6471 4.81091 13.7279 4.78523 13.7958 4.74239C13.963 4.63747 14.0525 4.42708 13.9837 4.22095Z" fill="#FFB629"/>
</svg>
