<svg width="35" height="35" viewBox="0 0 35 35" fill="none" xmlns="http://www.w3.org/2000/svg">
<rect x="0.5" y="0.5" width="34" height="34" rx="6.5" fill="white" stroke="#FFB629"/>
<g clip-path="url(#clip0)">
<path d="M16.0074 9.61875H19.0035V10.1229H20.0855V9.54818C20.0856 8.99043 19.6321 8.53662 19.0746 8.53662H15.9363C15.3788 8.53662 14.9253 8.99043 14.9253 9.54818V10.1229H16.0074V9.61875Z" fill="#FFB629"/>
<path d="M22.5843 14.4102H12.4266C12.1482 14.4102 11.9291 14.6476 11.9516 14.9251L12.8008 25.4258C12.8481 26.012 13.3371 26.4635 13.9245 26.4635H21.0862C21.6736 26.4635 22.1626 26.012 22.2099 25.4257L23.0591 14.9251C23.0817 14.6476 22.8626 14.4102 22.5843 14.4102V14.4102ZM14.8861 25.3435C14.8748 25.3442 14.8634 25.3446 14.8522 25.3446C14.5685 25.3446 14.3304 25.1237 14.3128 24.8367L13.7806 16.2162C13.7623 15.9179 13.9892 15.6612 14.2873 15.6429C14.5845 15.6248 14.8424 15.8512 14.8607 16.1496L15.3927 24.7701C15.4112 25.0684 15.1843 25.325 14.8861 25.3435V25.3435ZM18.0525 24.8035C18.0525 25.1022 17.8103 25.3444 17.5114 25.3444C17.2126 25.3444 16.9704 25.1022 16.9704 24.8035V16.1828C16.9704 15.884 17.2126 15.6418 17.5114 15.6418C17.8101 15.6418 18.0525 15.884 18.0525 16.1828V24.8035ZM21.2302 16.2147L20.7221 24.8352C20.7053 25.1227 20.4668 25.3444 20.1826 25.3444C20.1719 25.3444 20.1611 25.3442 20.1503 25.3436C19.852 25.326 19.6244 25.0699 19.642 24.7716L20.15 16.151C20.1675 15.8527 20.4227 15.6251 20.7219 15.6427C21.0202 15.6602 21.2477 15.9164 21.2302 16.2147V16.2147Z" fill="#FFB629"/>
<path d="M24.4553 12.7405L24.1 11.6753C24.0063 11.3945 23.7434 11.2051 23.4473 11.2051H11.5634C11.2675 11.2051 11.0045 11.3945 10.9109 11.6753L10.5556 12.7405C10.4871 12.9459 10.5762 13.1554 10.7427 13.2599C10.8105 13.3025 10.8908 13.328 10.979 13.328H24.0319C24.1201 13.328 24.2005 13.3025 24.2682 13.2598C24.4347 13.1553 24.5238 12.9458 24.4553 12.7405Z" fill="#FFB629"/>
</g>
<defs>
<clipPath id="clip0">
<rect width="17.9268" height="17.9268" fill="white" transform="translate(8.53658 8.53662)"/>
</clipPath>
</defs>
</svg>
