<svg width="41" height="41" viewBox="0 0 41 41" fill="none" xmlns="http://www.w3.org/2000/svg">
<rect x="0.5" y="0.5" width="40" height="40" rx="6.5" fill="white" stroke="#FFB629"/>
<path d="M24.7281 13.6012C24.7281 13.6012 26.1424 12.9045 21.0125 12.9045C19.1753 12.9045 17.3794 13.4493 15.8518 14.47C14.3242 15.4907 13.1336 16.9415 12.4305 18.6388C11.7275 20.3362 11.5435 22.2039 11.9019 24.0058C12.2604 25.8077 13.1451 27.4629 14.4442 28.762C15.7433 30.0611 17.3984 30.9458 19.2003 31.3042C21.0022 31.6626 22.8699 31.4786 24.5673 30.7756C26.2646 30.0725 27.7154 28.8819 28.7361 27.3543C29.7568 25.8268 30.3016 24.0308 30.3016 22.1936" stroke="#FFB629" stroke-miterlimit="10" stroke-linecap="round"/>
<path d="M21.0125 8.49219L25.657 13.1367L21.0125 17.7813" stroke="#FFB629" stroke-linecap="round" stroke-linejoin="round"/>
</svg>
